<svg width="24" height="14" viewBox="0 0 24 14" fill="none" xmlns="http://www.w3.org/2000/svg">
<path fill-rule="evenodd" clip-rule="evenodd" d="M0.203217 3C0.203217 2.45 0.672468 2 1.246 2H4.0302C4.23876 2 4.41606 1.87994 4.50991 1.68994C5.01044 0.689941 6.07408 0 7.31499 0C8.5559 0 9.60911 0.689941 10.1201 1.68994C10.2139 1.86994 10.3912 2 10.5997 2H22.1016C22.6751 2 23.1444 2.45 23.1444 3C23.1444 3.55 22.6751 4 22.1016 4H10.5893C10.3808 4 10.2035 4.12006 10.1096 4.31006C9.6091 5.31006 8.54546 6 7.30455 6C6.06364 6 5.01043 5.31006 4.49947 4.31006C4.40562 4.13006 4.22832 4 4.01977 4H1.246C0.672468 4 0.203217 3.55 0.203217 3ZM22.1016 10H19.3174C19.1088 10 18.9316 9.87994 18.8377 9.68994C18.3372 8.68994 17.2735 8 16.0326 8C14.7917 8 13.7385 8.68994 13.2275 9.68994C13.1337 9.86994 12.9565 10 12.7479 10H1.246C0.672468 10 0.203217 10.45 0.203217 11C0.203217 11.55 0.672468 12 1.246 12H12.7583C12.9668 12 13.1441 12.1201 13.238 12.3101C13.7385 13.3101 14.8021 14 16.0431 14C17.284 14 18.3372 13.3101 18.8481 12.3101C18.942 12.1301 19.1193 12 19.3278 12H22.1016C22.6751 12 23.1444 11.55 23.1444 11C23.1444 10.45 22.6751 10 22.1016 10Z" fill="#BBBBBC"/>
</svg>
